<svg version="1.1" id="Layer_1" xmlns="http://www.w3.org/2000/svg" xmlns:xlink="http://www.w3.org/1999/xlink" x="0px" y="0px"
	 width="100%" viewBox="0 0 225 225" enable-background="new 0 0 225 225" xml:space="preserve">
<path fill="#FFFEFE" opacity="1.000000" stroke="none" 
	d="
M1.000000,82.000000 
	C1.000000,54.666672 1.000000,27.833344 1.000000,1.000011 
	C75.999977,1.000007 150.999954,1.000007 225.999954,1.000004 
	C225.999969,75.999969 225.999969,150.999939 225.999985,225.999939 
	C151.000046,225.999954 76.000092,225.999954 1.000068,225.999969 
	C1.000000,178.166672 1.000000,130.333328 1.000000,82.000000 
M179.001541,202.522797 
	C214.184067,174.306183 228.647324,137.841766 221.038071,93.407013 
	C211.002686,34.804741 154.692352,-4.610439 95.997635,5.135248 
	C34.046104,15.421698 -6.838633,77.071335 7.519635,138.550232 
	C25.616304,216.036148 113.112869,249.010406 179.001541,202.522797 
z"/>
<path fill="#E65E52" opacity="1.000000" stroke="none" 
	d="
M178.716766,202.741821 
	C113.112869,249.010406 25.616304,216.036148 7.519635,138.550232 
	C-6.838633,77.071335 34.046104,15.421698 95.997635,5.135248 
	C154.692352,-4.610439 211.002686,34.804741 221.038071,93.407013 
	C228.647324,137.841766 214.184067,174.306183 178.716766,202.741821 
M17.003260,86.639824 
	C12.903446,101.824875 12.443623,117.114960 15.005572,132.641693 
	C24.040560,187.398376 80.391617,225.527054 134.533218,213.360107 
	C188.165405,201.307632 221.233353,152.455093 213.068390,97.337021 
	C204.766586,41.295025 149.135757,2.213663 93.997604,14.435243 
	C54.736664,23.137577 29.405714,47.653507 17.003260,86.639824 
z"/>
<path fill="#FFFEFD" opacity="1.000000" stroke="none" 
	d="
M17.082317,86.240509 
	C29.405714,47.653507 54.736664,23.137577 93.997604,14.435243 
	C149.135757,2.213663 204.766586,41.295025 213.068390,97.337021 
	C221.233353,152.455093 188.165405,201.307632 134.533218,213.360107 
	C80.391617,225.527054 24.040560,187.398376 15.005572,132.641693 
	C12.443623,117.114960 12.903446,101.824875 17.082317,86.240509 
M183.145508,80.342438 
	C183.071854,79.902466 182.998199,79.462494 183.134506,78.162155 
	C183.329636,68.053192 179.872177,64.008972 170.099625,63.997837 
	C132.333618,64.029747 94.567619,64.061661 56.020016,64.000267 
	C48.642845,64.306137 44.706848,68.333588 44.668098,76.175735 
	C44.576843,94.644600 44.628441,113.114464 44.693516,131.583664 
	C44.721031,139.393097 44.927822,147.201889 44.987106,155.501602 
	C44.987106,155.501602 45.168858,155.962082 45.221523,156.647720 
	C48.043503,163.259521 53.379608,164.820908 60.865746,164.012146 
	C93.509987,164.007080 126.154243,164.008499 158.798462,163.982254 
	C160.954391,163.980515 163.110138,163.767807 165.944458,163.798599 
	C166.638687,163.836090 167.332932,163.873581 168.507660,163.965240 
	C168.507660,163.965240 168.971390,163.832504 169.808426,163.974838 
	C179.035355,163.833206 183.128143,161.125610 183.154816,154.230789 
	C183.249252,129.820816 183.072464,105.409798 183.145508,80.342438 
z"/>
<path fill="#E6E3D6" opacity="1.000000" stroke="none" 
	d="
M165.265976,163.653229 
	C163.110138,163.767807 160.954391,163.980515 158.798462,163.982254 
	C126.154243,164.008499 93.509987,164.007080 60.430519,163.523300 
	C59.995289,138.754471 59.995289,114.474480 59.995289,89.206360 
	C75.603477,100.065735 90.142181,110.243256 104.761292,120.303947 
	C107.999222,122.532257 111.521248,124.347771 114.969383,126.674194 
	C115.570732,127.595085 116.024239,128.326309 116.672913,128.775970 
	C131.631943,139.145859 146.628494,149.461716 161.562225,159.867767 
	C162.985168,160.859299 164.040161,162.378830 165.265976,163.653229 
z"/>
<path fill="#E65B4E" opacity="1.000000" stroke="none" 
	d="
M114.912460,126.353363 
	C111.521248,124.347771 107.999222,122.532257 104.761292,120.303947 
	C90.142181,110.243256 75.603477,100.065735 59.995289,89.206360 
	C59.995289,114.474480 59.995289,138.754471 59.957325,163.499420 
	C53.379608,164.820908 48.043503,163.259521 45.338188,156.204727 
	C45.320946,155.511475 45.187035,155.261230 45.053127,155.010971 
	C44.927822,147.201889 44.721031,139.393097 44.693516,131.583664 
	C44.628441,113.114464 44.576843,94.644600 44.668098,76.175735 
	C44.706848,68.333588 48.642845,64.306137 56.591469,64.336197 
	C74.667709,77.690369 92.167709,90.715057 109.683975,103.717827 
	C111.635635,105.166603 113.388962,107.106178 116.245033,104.959969 
	C134.473099,91.262367 152.769165,77.655281 171.042862,64.018402 
	C179.872177,64.008972 183.329636,68.053192 182.826950,78.700073 
	C182.276764,79.437149 182.101242,79.684036 181.681152,80.118027 
	C176.858368,83.539429 172.347275,86.821449 167.497589,90.130569 
	C157.969849,96.385773 148.732788,102.544701 139.605667,108.862450 
	C131.312454,114.602982 123.138817,120.516243 114.912460,126.353363 
z"/>
<path fill="#F6F3EB" opacity="1.000000" stroke="none" 
	d="
M170.571243,64.008118 
	C152.769165,77.655281 134.473099,91.262367 116.245033,104.959969 
	C113.388962,107.106178 111.635635,105.166603 109.683975,103.717827 
	C92.167709,90.715057 74.667709,77.690369 56.982269,64.382851 
	C94.567619,64.061661 132.333618,64.029747 170.571243,64.008118 
z"/>
<path fill="#B6B3AA" opacity="1.000000" stroke="none" 
	d="
M114.969391,126.674194 
	C123.138817,120.516243 131.312454,114.602982 139.605667,108.862450 
	C148.732788,102.544701 157.969849,96.385773 167.550919,90.131706 
	C167.942825,90.105743 168.004349,90.020737 167.959167,90.265610 
	C167.914001,90.510475 167.993927,91.002029 167.926117,91.466644 
	C167.903442,115.620262 167.948578,139.309265 167.958374,163.228058 
	C167.923035,163.457855 168.027161,163.911057 168.027161,163.911057 
	C167.332932,163.873581 166.638687,163.836090 165.605225,163.725922 
	C164.040161,162.378830 162.985168,160.859299 161.562225,159.867767 
	C146.628494,149.461716 131.631943,139.145859 116.672913,128.775970 
	C116.024239,128.326309 115.570732,127.595085 114.969391,126.674194 
z"/>
<path fill="#B13A30" opacity="1.000000" stroke="none" 
	d="
M167.993713,162.998260 
	C167.948578,139.309265 167.903442,115.620262 168.092529,91.379517 
	C168.392288,90.722725 168.536331,90.555771 168.510376,90.522858 
	C168.364319,90.337662 168.177353,90.184692 168.004349,90.020737 
	C168.004349,90.020737 167.942825,90.105743 167.889496,90.104607 
	C172.347275,86.821449 176.858368,83.539429 181.784973,80.344612 
	C182.397644,80.717751 182.663635,80.906876 182.998474,80.999176 
	C183.072464,105.409798 183.249252,129.820816 183.154816,154.230789 
	C183.128143,161.125610 179.035355,163.833206 169.275696,163.713745 
	C168.539459,163.224960 168.289688,163.073502 167.993713,162.998260 
z"/>
<path fill="#AD2B1E" opacity="1.000000" stroke="none" 
	d="
M183.071991,80.670807 
	C182.663635,80.906876 182.397644,80.717751 182.096664,80.205231 
	C182.101242,79.684036 182.276764,79.437149 182.721970,79.130257 
	C182.998199,79.462494 183.071854,79.902466 183.071991,80.670807 
z"/>
<path fill="#E55142" opacity="1.000000" stroke="none" 
	d="
M45.020119,155.256287 
	C45.187035,155.261230 45.320946,155.511475 45.311855,155.861908 
	C45.168858,155.962082 44.987106,155.501602 45.020119,155.256287 
z"/>
<path fill="#B13127" opacity="1.000000" stroke="none" 
	d="
M167.958374,163.228058 
	C168.289688,163.073502 168.539459,163.224960 168.857178,163.642578 
	C168.971390,163.832504 168.507660,163.965240 168.267410,163.938141 
	C168.027161,163.911057 167.923035,163.457855 167.958374,163.228058 
z"/>
<path fill="#B13127" opacity="1.000000" stroke="none" 
	d="
M167.959167,90.265610 
	C168.177353,90.184692 168.364319,90.337662 168.510376,90.522858 
	C168.536331,90.555771 168.392288,90.722725 168.160339,90.914902 
	C167.993927,91.002029 167.914001,90.510475 167.959167,90.265610 
z"/>
</svg>